<svg width="137" height="19" viewBox="0 0 137 19" fill="none" xmlns="http://www.w3.org/2000/svg">
<path d="M4.87109 0.9375L8.09375 13.2773L11.3047 0.9375H15.8047V18H12.3477V13.3828L12.6641 6.26953L9.25391 18H6.91016L3.5 6.26953L3.81641 13.3828V18H0.371094V0.9375H4.87109ZM23.3984 8.60156L25.9648 0.9375H29.7148L25.1445 11.8125V18H21.6523V11.8125L17.0703 0.9375H20.8203L23.3984 8.60156ZM36.0898 11.4141L34.7305 13.125V18H31.2852V0.9375H34.7305V8.37891L35.8203 6.53906L38.9961 0.9375H43.2148L38.3281 8.4375L43.2969 18H39.207L36.0898 11.4141ZM56.5391 18H53.1055V10.6992H48.0195V18H44.5742V0.9375H48.0195V7.83984H53.1055V0.9375H56.5391V18ZM67.6719 14.5078H62.9727L62.0586 18H58.4141L63.7461 0.9375H66.8984L72.2656 18H68.5859L67.6719 14.5078ZM63.7227 11.6367H66.9102L65.3164 5.55469L63.7227 11.6367ZM77.4688 18H74.0234V0.9375H77.4688V18ZM83.8086 15.1406H89.8555V18H80.3633V0.9375H83.8086V15.1406ZM95.4453 18H92V0.9375H95.4453V18ZM109.438 0.9375V12.75C109.422 14.5234 108.934 15.8828 107.973 16.8281C107.012 17.7656 105.633 18.2344 103.836 18.2344C102.008 18.2344 100.609 17.7578 99.6406 16.8047C98.6797 15.8516 98.1992 14.4727 98.1992 12.668V0.9375H101.668V12.6797C101.668 13.6484 101.824 14.3398 102.137 14.7539C102.449 15.168 103.016 15.375 103.836 15.375C104.656 15.375 105.219 15.1719 105.523 14.7656C105.828 14.3516 105.984 13.6758 105.992 12.7383V0.9375H109.438ZM123.102 3.80859H118.883V18H115.426V3.80859H111.277V0.9375H123.102V3.80859ZM131.82 14.5078H127.121L126.207 18H122.562L127.895 0.9375H131.047L136.414 18H132.734L131.82 14.5078ZM127.871 11.6367H131.059L129.465 5.55469L127.871 11.6367Z" fill="#FFFFFE"/>
</svg>
