<svg width="50" height="50" viewBox="0 0 50 50" fill="none" xmlns="http://www.w3.org/2000/svg">
<path d="M47.842 43.4517H43.7976V20.4587L46.0732 21.9724C46.9104 22.5295 47.992 22.5293 48.829 21.9725C49.524 21.5102 49.9389 20.7359 49.9389 19.9011C49.9389 19.0664 49.5239 18.2921 48.829 17.8298L43.4163 14.2293C43.0891 14.0117 42.6474 14.1004 42.4298 14.4275C42.2121 14.7547 42.301 15.1964 42.6281 15.414L48.0408 19.0147C48.3427 19.2154 48.5157 19.5384 48.5157 19.901C48.5157 20.2636 48.3426 20.5867 48.0407 20.7875C47.6825 21.0257 47.2196 21.0257 46.8614 20.7875L25.6997 6.71041C25.2746 6.42779 24.7253 6.4277 24.3002 6.71061L3.13848 20.7876C2.78027 21.0258 2.31748 21.0259 1.95928 20.7875C1.65742 20.5868 1.48437 20.2637 1.48437 19.9011C1.48437 19.5385 1.65752 19.2155 1.95928 19.0147L25 3.68785L38.9464 12.9651C39.2737 13.1831 39.7153 13.094 39.9329 12.7669C40.1506 12.4396 40.0617 11.9979 39.7346 11.7803L25.6997 2.44391C25.2746 2.16129 24.7253 2.16119 24.3002 2.4441L17.3866 7.04303V6.42682H17.5921C18.102 6.42682 18.5167 6.01197 18.5167 5.50221V3.34342C18.5167 2.83365 18.1019 2.41881 17.5921 2.41881H10.0644C9.55449 2.41881 9.13975 2.83365 9.13975 3.34342V5.50231C9.13975 6.01207 9.55449 6.42692 10.0644 6.42692H10.2698V11.7772L1.171 17.8298C0.475977 18.2921 0.0611328 19.0665 0.0611328 19.9012C0.0611328 20.736 0.476074 21.5102 1.171 21.9725C1.58955 22.251 2.06914 22.3902 2.54893 22.3902C3.02852 22.3902 3.5083 22.2509 3.92676 21.9725L6.20244 20.4587V33.1332C6.20244 33.5262 6.521 33.8448 6.91406 33.8448C7.30703 33.8448 7.62568 33.5262 7.62568 33.1332V19.5121L25 7.95426L42.3744 19.5119V43.4516H7.62559V37.5862C7.62559 37.1931 7.30703 36.8746 6.91397 36.8746C6.521 36.8746 6.20234 37.1931 6.20234 37.5862V43.4516H2.15801C0.968066 43.4517 0 44.4198 0 45.6097C0 46.7997 0.968066 47.7677 2.15801 47.7677H47.842C49.0319 47.7677 50 46.7997 50 45.6097C50 44.4198 49.0319 43.4517 47.842 43.4517ZM15.9635 7.98981L11.693 10.8305V6.42692H15.9635V7.98981ZM10.563 3.84196H17.0937V5.00377H10.563V3.84196V3.84196ZM47.842 46.3446H2.15801C1.75283 46.3446 1.42314 46.0149 1.42314 45.6097C1.42314 45.2044 1.75283 44.8748 2.15801 44.8748H47.842C48.2472 44.8748 48.5769 45.2044 48.5769 45.6097C48.5769 46.0149 48.2472 46.3446 47.842 46.3446Z" fill="#FC5710"/>
<path d="M35.9627 23.0046C34.5645 21.4216 32.9263 20.5804 31.0938 20.504C28.3658 20.3921 25.9935 22.0204 25.0001 22.8207C24.0069 22.0204 21.6339 20.3929 18.9066 20.504C17.074 20.5804 15.4359 21.4217 14.0376 23.0046C12.3651 24.898 11.7386 26.9632 12.1756 29.1427C13.4965 35.7321 24.2331 41.0074 24.6895 41.2288C24.7875 41.2764 24.8938 41.3002 25 41.3002C25.1063 41.3002 25.2125 41.2764 25.3106 41.2288C25.767 41.0074 36.5036 35.7321 37.8247 29.1427C38.2616 26.9632 37.6352 24.898 35.9627 23.0046ZM36.4296 28.8617C35.3642 34.1821 26.7549 38.8828 25 39.7909C23.2451 38.8828 14.6359 34.1821 13.5705 28.8617C13.2214 27.118 13.723 25.5103 15.1041 23.9467C16.2341 22.6675 17.5308 21.9877 18.9583 21.9263C19.0316 21.9231 19.104 21.9216 19.1769 21.9216C22.0052 21.9216 24.4831 24.2499 24.5077 24.2735C24.7823 24.5366 25.2161 24.5366 25.4916 24.2742C25.5176 24.2495 28.1206 21.801 31.0418 21.9264C32.4694 21.9878 33.7661 22.6676 34.896 23.9468C36.2771 25.5103 36.7787 27.118 36.4296 28.8617Z" fill="#FC5710"/>
</svg>
