<svg width="100" height="100" viewBox="0 0 100 100" fill="none" xmlns="http://www.w3.org/2000/svg">
<path d="M96.1867 91.675H93.7301V40.2743C93.7301 39.3708 93.0592 38.6385 92.2314 38.6385C91.4037 38.6385 90.7328 39.3708 90.7328 40.2743V50.5859H84.275V33.8786C84.275 32.0873 82.9398 30.6298 81.2988 30.6298H56.4381C54.7971 30.6298 53.4619 32.0873 53.4619 33.8786V50.5859H47.0041V10.4435L90.7328 23.7367V30.1105C90.7328 31.014 91.4037 31.7464 92.2314 31.7464C93.0592 31.7464 93.7301 31.014 93.7301 30.1105V24.6477L95.7908 25.2741C95.9723 25.3293 96.1562 25.3564 96.3385 25.3564C96.7732 25.3561 97.1984 25.202 97.5563 24.9052C98.0641 24.4842 98.3553 23.8437 98.3553 23.1476V18.9066C98.3553 17.9195 97.7469 17.0452 96.8758 16.7804L41.9461 0.0822078C41.3322 -0.104342 40.6885 0.0299736 40.1807 0.450829C39.6729 0.871898 39.3816 1.51256 39.3816 2.20844V6.44941C39.3816 7.43652 39.99 8.31085 40.8611 8.57564L44.0068 9.53184V15.4765H15.0086C13.8156 15.4765 12.8449 16.5361 12.8449 17.8383V21.9445C12.8449 23.2467 13.8156 24.3063 15.0086 24.3063H16.8385V55.8159H6.92891C4.78652 55.8159 3.04336 57.7185 3.04336 60.0573V91.7598C1.30859 92.15 0 93.83 0 95.8375C0 98.1328 1.71055 100 3.81328 100H96.1867C98.2895 100 100 98.1328 100 95.8375C100 93.5422 98.2895 91.675 96.1867 91.675ZM90.733 59.0883V91.675H88.3273V71.5223C88.3271 70.1436 87.2996 69.0219 86.0367 69.0219H76.0135C74.7504 69.0219 73.723 70.1436 73.723 71.5221V91.6748H47.0043V59.0883H90.733ZM85.3299 72.2937V91.675H76.7201V72.2937H85.3299ZM56.4592 33.9016H81.2775V50.5859H56.4592V33.9016ZM90.7328 53.8577V55.8166H19.8355V53.8577H90.7328ZM29.2832 50.5859V36.3589H37.9559V50.5859H29.2832ZM42.3791 5.64138V3.61044L95.358 19.7157V21.7467L42.3791 5.64138ZM44.007 24.307V50.5859H40.9531V35.7839C40.9531 34.2969 39.8447 33.0872 38.4824 33.0872H28.7566C27.3943 33.0872 26.2859 34.2969 26.2859 35.7839V50.5859H19.8357V24.307H44.007ZM15.842 21.0352V18.7487H44.0068V21.0352H15.842ZM6.04062 60.0577C6.04062 59.523 6.43906 59.0881 6.92891 59.0881H44.0068V91.6748H39.0377V71.3388C39.0377 69.9754 38.0215 68.8661 36.7725 68.8661H13.0562C11.8072 68.8661 10.791 69.9754 10.791 71.3388V91.6748L10.925 91.675H10.791H6.04062V60.0577ZM16.4137 74.9791H13.7883V72.1378H36.0406V74.9791H25.7246C24.8969 74.9791 24.226 75.7115 24.226 76.615C24.226 77.5186 24.8969 78.2509 25.7246 78.2509H36.0406V81.0922H13.7883V78.2509H16.4137C17.2414 78.2509 17.9123 77.5186 17.9123 76.615C17.9123 75.7115 17.2414 74.9791 16.4137 74.9791ZM36.0406 84.3637V87.2051H13.7883V84.3637H36.0406ZM36.0404 90.4768V91.6748H13.7883V90.4768H36.0404V90.4768ZM96.1867 96.7285H3.81328C3.36328 96.7285 2.99727 96.3287 2.99727 95.8375C2.99727 95.3463 3.36328 94.9465 3.81328 94.9465H96.1867C96.6367 94.9465 97.0027 95.3463 97.0027 95.8375C97.0027 96.3287 96.6367 96.7285 96.1867 96.7285Z" fill="#FC5710"/>
</svg>
