<svg width="100" height="100" viewBox="0 0 100 100" fill="none" xmlns="http://www.w3.org/2000/svg">
<path d="M99.1168 22.0647L50.6795 0.145605C50.25 -0.0485351 49.75 -0.0485351 49.3207 0.145605L0.883243 22.0647C0.343171 22.3091 0 22.8218 0 23.3839V76.616C0 77.1781 0.343171 77.6908 0.883243 77.9352L49.3205 99.8543C49.5351 99.9514 49.7677 100 50 100C50.2323 100 50.4646 99.9514 50.6795 99.8543L99.1168 77.9352C99.6568 77.6908 100 77.1781 100 76.616V23.3841C100 22.8216 99.6566 22.3093 99.1168 22.0647ZM50 3.0915L94.8429 23.3839L81.8438 29.2663C81.7615 29.2075 81.6746 29.1532 81.5792 29.11L37.041 8.95575L50 3.0915ZM33.5118 10.612L78.2894 30.8749L69.1184 35.0251L24.3593 14.7704L33.5118 10.612ZM79.337 33.6538V48.9948L70.7707 52.8713V37.5303L79.337 33.6538ZM96.8746 75.6969L51.5627 96.2012V46.2223L62.371 41.3313C63.1482 40.9796 63.4741 40.104 63.0988 39.3753C62.7236 38.6469 61.7895 38.3411 61.0121 38.693L50 43.6764L45.6669 41.7155C44.8895 41.3633 43.9554 41.6692 43.5802 42.3977C43.2049 43.1262 43.5308 44.002 44.308 44.3538L48.4373 46.2223V96.2012L3.12542 75.6965V25.7177L37.63 41.3319C37.849 41.4311 38.0805 41.478 38.3082 41.478C38.8891 41.478 39.4471 41.1729 39.7165 40.6497C40.0918 39.9212 39.7659 39.0454 38.9887 38.6936L5.15715 23.3839L20.6811 16.3589L67.6236 37.6016C67.6305 37.6106 67.6382 37.6186 67.6453 37.6274V55.2053C67.6453 55.7094 67.9218 56.178 68.3772 56.4461C68.6302 56.595 68.9188 56.6702 69.2082 56.6702C69.4399 56.6702 69.6722 56.6219 69.8874 56.5245L81.5792 51.2336C82.1193 50.9893 82.4625 50.4768 82.4625 49.9145V32.2397L96.8746 25.7178V75.6969V75.6969Z" fill="#FC5710"/>
</svg>
