<svg width="100" height="100" viewBox="0 0 100 100" fill="none" xmlns="http://www.w3.org/2000/svg">
<path d="M98.9359 63.2031C97.0338 60.152 93.2033 59.3445 90.3994 61.4013L77.6377 70.7234L77.6006 41.7069L82.0342 46.2403C82.977 47.2041 84.2062 47.7345 85.4969 47.7345C85.4992 47.7345 85.502 47.7345 85.5045 47.7345C86.8978 47.7324 88.2432 47.0949 89.1955 45.9853C90.1207 44.9072 90.6061 43.5007 90.5619 42.0241C90.5178 40.5476 89.9494 39.1784 88.9617 38.1685L80.5564 29.5742C79.9811 28.9858 79.0777 29.018 78.5389 29.646C78 30.2741 78.0295 31.2598 78.6047 31.8482L87.01 40.4425C87.4412 40.8834 87.6893 41.4812 87.7086 42.1256C87.7277 42.7701 87.516 43.3843 87.1119 43.8548C86.69 44.3464 86.1178 44.6175 85.5002 44.6184C85.499 44.6184 85.498 44.6184 85.4969 44.6184C84.9338 44.6184 84.3973 44.3869 83.9857 43.966C83.9855 43.9658 83.9855 43.9658 83.9855 43.9658L50.6102 9.83952C50.0602 9.27735 49.2043 9.27821 48.6557 9.8425L15.367 44.0709C14.9371 44.5131 14.375 44.7446 13.7844 44.7267C13.1937 44.7075 12.6455 44.4382 12.2404 43.9686C11.8354 43.4994 11.6219 42.8858 11.6396 42.2414C11.6572 41.5967 11.9039 40.9983 12.3338 40.5562L48.1105 3.76953C48.9586 2.89739 50.2891 2.89526 51.1393 3.76505L72.0703 25.167C72.6455 25.7552 73.5488 25.7232 74.0879 25.0952C74.6268 24.4672 74.5973 23.4814 74.0221 22.893L53.0912 1.49102C51.1434 -0.500978 48.0959 -0.496501 46.1531 1.50146L34.7002 13.2778L34.6971 11.1772C34.6963 10.5151 34.4592 9.89303 34.0297 9.42573C33.601 8.95907 33.0318 8.70218 32.4264 8.70218C32.4252 8.70218 32.4242 8.70218 32.423 8.70218L24.2303 8.71476C23.6236 8.71561 23.0539 8.97442 22.6256 9.44321C22.1975 9.912 21.9619 10.5347 21.9629 11.1971L21.9855 26.3517L10.3764 38.2885C9.39121 39.3014 8.82656 40.6723 8.78613 42.1489C8.7457 43.6254 9.23457 45.0307 10.1625 46.1056C11.0902 47.1809 12.3463 47.7974 13.6992 47.8415C13.751 47.8432 13.8027 47.8441 13.8545 47.8441C15.1504 47.8441 16.3775 47.3132 17.3246 46.339L21.7482 41.7905L21.7658 55.4963C20.3346 55.2689 18.8865 55.1495 17.4318 55.1495H14.9895V54.2153C14.9895 51.0791 12.6518 48.5275 9.77852 48.5275H5.21094C2.3377 48.5273 0 51.0787 0 54.2151V78.6285C0 79.4889 0.639063 80.1865 1.42734 80.1865C2.21562 80.1865 2.85469 79.4889 2.85469 78.6285V54.2151C2.85469 52.797 3.91172 51.6432 5.21094 51.6432H9.77832C11.0775 51.6432 12.1346 52.797 12.1346 54.2151V56.7072V88.6413V91.1089C12.1346 92.527 11.0775 93.6808 9.77832 93.6808H5.21094C3.91172 93.6808 2.85469 92.527 2.85469 91.1089V88.3827C2.85469 87.5223 2.21562 86.8248 1.42734 86.8248C0.639063 86.8248 0 87.5223 0 88.3827V91.1089C0 94.2451 2.3377 96.7967 5.21094 96.7967H9.77832C12.6516 96.7967 14.9893 94.2453 14.9893 91.1089V90.8972L35.8924 99.5372C35.9311 99.5532 35.9703 99.5672 36.0102 99.5794C36.9189 99.8595 37.8273 100 38.7242 100C39.2094 100 39.6912 99.9589 40.1682 99.8766L70.8871 95.0433C70.8943 95.0422 70.9014 95.0409 70.9086 95.0396C73.5203 94.5845 75.9842 93.3794 78.0336 91.5549C78.0514 91.5391 78.0689 91.5227 78.0859 91.5059L97.9318 72.0234C100.243 69.7839 100.674 65.992 98.9359 63.2031ZM31.8432 11.8191L31.8498 16.2086L24.8357 23.4206L24.8184 11.8296L31.8432 11.8191ZM49.6369 13.114L74.742 38.784L74.7855 72.8067L70.7443 75.7588L66.4648 75.4968L66.3518 74.2561C65.9535 69.8862 62.998 66.3711 59.09 65.5322L59.0643 45.2914C59.0623 43.7381 57.9037 42.4759 56.4809 42.4759C56.4797 42.4759 56.4787 42.4759 56.4773 42.4759L42.873 42.4968C42.183 42.4978 41.5346 42.792 41.0475 43.3254C40.5602 43.8586 40.2924 44.5672 40.2934 45.3202L40.316 62.9678C37.6213 62.2954 35.0482 61.1849 32.6426 59.6489C32.3424 59.4573 32.0393 59.2722 31.7336 59.0923C31.6145 59.0222 31.4934 58.9563 31.3732 58.8879C31.1873 58.7819 31.0018 58.6753 30.8139 58.5736C30.6643 58.4926 30.5129 58.4159 30.3621 58.3376C30.2021 58.2547 30.0424 58.1709 29.8813 58.091C29.7172 58.0098 29.5518 57.9324 29.3865 57.8543C29.2355 57.7831 29.0846 57.7115 28.9326 57.6431C28.7627 57.5665 28.5918 57.493 28.4207 57.4199C28.2689 57.3551 28.117 57.2907 27.9645 57.2284C27.7951 57.1594 27.625 57.0926 27.4545 57.0272C27.2945 56.9656 27.1344 56.9055 26.9734 56.8468C26.8102 56.7874 26.6465 56.7292 26.482 56.6727C26.3068 56.6123 26.1309 56.5548 25.9547 56.4979C25.8033 56.4493 25.6521 56.4006 25.5 56.3546C25.3014 56.2943 25.1018 56.2378 24.902 56.1819C24.8084 56.1557 24.7154 56.1261 24.6213 56.1007L24.5992 38.8588L49.6369 13.114ZM56.235 65.1423L44.2965 63.6421L43.1717 63.5007L43.1486 45.6122L56.21 45.5922L56.235 65.1423ZM96.0299 69.7004L76.2035 89.1636C74.5514 90.6259 72.5695 91.5931 70.4689 91.961L39.7633 96.7922C39.7568 96.7933 39.7506 96.7943 39.7441 96.7954L39.7229 96.799C38.7926 96.9598 37.8238 96.892 36.8432 96.5982L14.9895 87.5652V58.2652H17.4318C19.5109 58.2652 21.576 58.5272 23.5869 59.036C23.6617 59.055 23.7363 59.0744 23.8109 59.094C24.058 59.159 24.3045 59.226 24.5498 59.2985C24.5713 59.3049 24.5926 59.3117 24.6141 59.3181C24.86 59.3914 25.1049 59.4688 25.349 59.5496C25.3928 59.5641 25.4367 59.5784 25.4803 59.5931C25.74 59.6807 25.9986 59.7722 26.2559 59.8681C26.2824 59.8781 26.3088 59.8883 26.3354 59.8984C26.8711 60.1002 27.4016 60.3205 27.9254 60.5588C27.9539 60.5718 27.9824 60.5848 28.0109 60.598C28.2721 60.7178 28.5316 60.8417 28.7895 60.9705C28.7963 60.9739 28.8033 60.9775 28.8102 60.9811C29.0594 61.106 29.3068 61.2357 29.5527 61.3689C29.5816 61.3845 29.6107 61.3998 29.6396 61.4156C29.8799 61.5467 30.1182 61.6825 30.3551 61.8215C30.3998 61.8477 30.4443 61.8746 30.4891 61.901C30.7281 62.0432 30.9658 62.1882 31.2012 62.3385C34.5979 64.5072 38.2955 65.9119 42.1916 66.5137C42.2039 66.5156 42.216 66.5173 42.2283 66.5188L58.2207 68.5285C58.3092 68.5423 58.3971 68.5583 58.4844 68.5762C60.8387 69.0589 62.6969 70.9577 63.3186 73.4304C63.4107 73.7967 63.4756 74.1757 63.5111 74.5644L63.5746 75.2615L33.602 72.3952C32.8172 72.3204 32.1242 72.9542 32.0555 73.8112C31.9865 74.6684 32.5676 75.4241 33.3527 75.4992L65.0406 78.5296C65.0482 78.5302 65.0557 78.53 65.0631 78.5307C65.0705 78.5313 65.0777 78.5326 65.0854 78.5332L71.0613 78.8992C71.0881 78.901 71.1147 78.9016 71.1412 78.9016C71.1695 78.9016 71.1975 78.8967 71.2256 78.8948C71.2574 78.8926 71.2893 78.8914 71.3209 78.8871C71.3635 78.8811 71.4051 78.8711 71.4469 78.8611C71.4768 78.8538 71.5068 78.8485 71.5361 78.8391C71.5818 78.8248 71.6258 78.8054 71.6701 78.786C71.6939 78.7756 71.7186 78.7677 71.742 78.7558C71.8086 78.7221 71.8734 78.6833 71.9352 78.6381L77.0078 74.9327C77.008 74.9325 77.0082 74.9323 77.0084 74.9321L91.9893 63.9889C93.4965 62.8831 95.5539 63.317 96.5756 64.9559C97.5096 66.4538 97.2777 68.4907 96.0299 69.7004Z" fill="#FC5710"/>
</svg>
