<svg width="50" height="50" viewBox="0 0 50 50" fill="none" xmlns="http://www.w3.org/2000/svg">
<g clip-path="url(#clip0)">
<path d="M47.6204 5.01717H42.523C42.1299 5.01717 41.8114 5.33572 41.8114 5.72878C41.8114 6.12185 42.1299 6.4404 42.523 6.4404H47.6204C48.0442 6.4404 48.389 6.78513 48.389 7.20886V47.8083C48.389 48.2321 48.0442 48.5769 47.6204 48.5769H5.25936C3.24774 48.5769 1.61122 46.9403 1.61122 44.9287C1.61122 42.9172 3.24794 41.2807 5.25975 41.2807C6.80984 41.2807 8.19411 42.2638 8.70426 43.727C8.82145 44.0632 9.13893 44.2891 9.49401 44.2891C9.95563 44.2891 10.3312 43.9135 10.3312 43.4519V6.44031H38.1017C38.4948 6.44031 38.8133 6.12175 38.8133 5.72869C38.8133 5.33562 38.4948 5.01707 38.1017 5.01707H10.3298C10.3293 4.99363 10.3273 4.97058 10.3264 4.94715C10.3249 4.90623 10.3229 4.86541 10.3205 4.82478C10.3177 4.78025 10.3143 4.73602 10.3105 4.69178C10.307 4.65115 10.3031 4.61063 10.2986 4.5702C10.2937 4.52645 10.2881 4.48299 10.2822 4.43953C10.2766 4.3993 10.2709 4.35906 10.2644 4.31912C10.2575 4.27625 10.2499 4.23367 10.242 4.19119C10.2344 4.15125 10.2267 4.11131 10.2183 4.07166C10.2094 4.02977 10.1999 3.98826 10.1899 3.94676C10.1804 3.90721 10.1709 3.86785 10.1605 3.82869C10.1497 3.78778 10.1381 3.74715 10.1264 3.70653C10.1151 3.66756 10.1037 3.6287 10.0915 3.59012C10.0788 3.55008 10.0654 3.51043 10.0518 3.47079C10.0387 3.4325 10.0254 3.39432 10.0115 3.35643C9.99703 3.31737 9.9819 3.27879 9.96656 3.24022C9.95162 3.20253 9.93658 3.16493 9.92076 3.12772C9.90465 3.08983 9.88776 3.05233 9.87076 3.01493C9.85406 2.97801 9.83727 2.9411 9.81969 2.90458C9.80192 2.86766 9.78336 2.83134 9.76471 2.79491C9.74625 2.75887 9.72779 2.72284 9.70856 2.68729C9.68912 2.65136 9.66891 2.616 9.6486 2.58065C9.62858 2.54559 9.60856 2.51063 9.58776 2.47616C9.56676 2.4413 9.54489 2.40702 9.52301 2.37274C9.50133 2.33876 9.47985 2.30468 9.45748 2.27128C9.43492 2.23749 9.41149 2.20438 9.38815 2.17118C9.365 2.13837 9.34205 2.10546 9.31823 2.07323C9.2941 2.04052 9.26911 2.00849 9.2442 1.97646C9.21969 1.94482 9.19528 1.91308 9.17008 1.88212C9.1445 1.85068 9.11803 1.81991 9.09176 1.78905C9.06579 1.75859 9.04 1.72802 9.01334 1.69823C8.98629 1.66796 8.95846 1.63857 8.93083 1.60898C8.90358 1.57988 8.87643 1.55058 8.8485 1.52206C8.81999 1.49306 8.79069 1.46484 8.76159 1.43652C8.73307 1.40888 8.70485 1.38095 8.67575 1.3539C8.64586 1.32607 8.6151 1.29921 8.58454 1.27216C8.55495 1.24599 8.52565 1.21953 8.49548 1.19394C8.46403 1.16738 8.4319 1.14189 8.39987 1.11601C8.3693 1.0914 8.33903 1.0665 8.30798 1.04257C8.27516 1.01738 8.24157 0.993257 8.20817 0.968843C8.17663 0.945796 8.14538 0.922359 8.11325 0.900093C8.07927 0.876363 8.0444 0.853902 8.00983 0.830953C7.97731 0.809468 7.94499 0.787496 7.91198 0.766793C7.87663 0.744527 7.8405 0.723531 7.80456 0.702145C7.77126 0.68232 7.73825 0.662106 7.70456 0.643063C7.66774 0.622262 7.63015 0.602829 7.59284 0.583004C7.55896 0.564938 7.52536 0.546383 7.49099 0.529196C7.45271 0.509958 7.41364 0.492087 7.37478 0.473825C7.3404 0.457712 7.30642 0.440915 7.27165 0.425486C7.23181 0.40781 7.19128 0.391697 7.15095 0.375095C7.11628 0.360837 7.08191 0.345798 7.04685 0.332322C7.00554 0.316404 6.96345 0.302048 6.92156 0.287107C6.88669 0.274705 6.85212 0.261619 6.81697 0.2499C6.7739 0.235643 6.73005 0.223143 6.6865 0.210057C6.65173 0.199607 6.61726 0.188377 6.5822 0.178709C6.53748 0.166307 6.49216 0.15576 6.44695 0.144627C6.41218 0.136034 6.37781 0.126659 6.34275 0.118846C6.29597 0.108397 6.24851 0.0999009 6.20125 0.0908189C6.16726 0.0842759 6.13357 0.0767564 6.09929 0.0708971C6.0489 0.0623034 5.99783 0.0557604 5.94685 0.0486315C5.91511 0.044237 5.88377 0.0387683 5.85193 0.0349597C5.795 0.0282215 5.73758 0.0236316 5.68006 0.0187488C5.65359 0.0165028 5.62742 0.0131825 5.60086 0.0114247C5.51658 0.00566296 5.43182 0.00204969 5.34656 0.00058485C3.97889 -0.0198252 2.68095 0.494528 1.7038 1.45556C0.726365 2.41679 0.188086 3.70096 0.188086 5.07156V31.8048C0.188086 32.1978 0.506639 32.5164 0.899704 32.5164C1.29277 32.5164 1.61132 32.1978 1.61132 31.8048V5.07156C1.61132 4.08553 1.99853 3.16171 2.70165 2.4702C3.40458 1.7788 4.33192 1.40663 5.32244 1.42372C7.29968 1.45673 8.90817 3.12538 8.90817 5.14334V5.72869V41.4073C7.97214 40.4388 6.66482 39.8576 5.25975 39.8576C3.8287 39.8576 2.53427 40.4533 1.61122 41.4097V36.2262C1.61122 35.8332 1.29267 35.5146 0.899607 35.5146C0.506542 35.5146 0.187988 35.8332 0.187988 36.2262V44.9287C0.187988 47.725 2.46298 50 5.25926 50H47.6202C48.8287 50 49.8119 49.0168 49.8119 47.8083V7.20886C49.8121 6.00037 48.8288 5.01717 47.6204 5.01717Z" fill="#FC5710"/>
<path d="M44.5683 15.2226C44.9614 15.2226 45.2799 14.9041 45.2799 14.511V12.3156C45.2799 11.3398 44.486 10.5459 43.5102 10.5459H13.9548C12.979 10.5459 12.1851 11.3398 12.1851 12.3156V41.8709C12.1851 42.8467 12.979 43.6407 13.9548 43.6407H43.5101C44.4859 43.6407 45.2798 42.8467 45.2798 41.8709V20.6869C45.2798 20.2938 44.9613 19.9753 44.5682 19.9753C44.1752 19.9753 43.8566 20.2938 43.8566 20.6869V25.4592H34.7287C34.3357 25.4592 34.0171 25.7778 34.0171 26.1708C34.0171 26.5639 34.3357 26.8825 34.7287 26.8825H43.8566V32.8395H40.6226C40.2296 32.8395 39.911 33.158 39.911 33.5511C39.911 33.9441 40.2296 34.2627 40.6226 34.2627H43.8566V41.8711C43.8566 42.0622 43.7011 42.2177 43.51 42.2177H26.8474V34.2627H33.7552C34.1483 34.2627 34.4668 33.9441 34.4668 33.5511C34.4668 33.158 34.1483 32.8395 33.7552 32.8395H20.8141C20.4211 32.8395 20.1025 33.158 20.1025 33.5511C20.1025 33.9441 20.4211 34.2627 20.8141 34.2627H25.4242V42.2177H13.9548C13.7637 42.2177 13.6082 42.0622 13.6082 41.8711V34.2627H15.9196C16.3127 34.2627 16.6312 33.9441 16.6312 33.5511C16.6312 33.158 16.3127 32.8395 15.9196 32.8395H13.6082V22.3898H24.4274C24.8205 22.3898 25.139 22.0712 25.139 21.6782V18.3805C25.139 17.9875 24.8205 17.6689 24.4274 17.6689C24.0343 17.6689 23.7158 17.9875 23.7158 18.3805V20.9666H13.6082V12.3156C13.6082 12.1245 13.7637 11.969 13.9548 11.969H23.7158V13.9729C23.7158 14.366 24.0343 14.6846 24.4274 14.6846C24.8205 14.6846 25.139 14.366 25.139 13.9729V11.969H34.0174V21.8657C34.0174 22.2587 34.3359 22.5773 34.729 22.5773C35.1221 22.5773 35.4406 22.2587 35.4406 21.8657V11.969H43.5103C43.7014 11.969 43.8569 12.1245 43.8569 12.3156V14.511C43.8568 14.9042 44.1754 15.2226 44.5683 15.2226Z" fill="#FC5710"/>
</g>
<defs>
<clipPath id="clip0">
<rect width="50" height="50" fill="white"/>
</clipPath>
</defs>
</svg>
